<svg xmlns="http://www.w3.org/2000/svg" width="46" height="69" viewBox="0 0 46 69">
    <g fill="#63D2C1" fill-rule="nonzero">
        <path d="M.462 61.764a1.764 1.764 0 0 0 1.756 1.758l9.786.017c.967 0 1.752-.784 1.755-1.752V6.677a1.76 1.76 0 0 0-1.755-1.755H2.218A1.76 1.76 0 0 0 .462 6.677v55.087zM18.104.227a1.418 1.418 0 0 0-1.727 1.443v65.174a1.42 1.42 0 0 0 1.727 1.445l25.6-4.599a2.185 2.185 0 0 0 1.73-2.065l.028-54.7a2.185 2.185 0 0 0-1.727-2.067L18.104.228zM42.24 58.951a2.185 2.185 0 0 1-1.728 2.066L21.3 64.467a1.42 1.42 0 0 1-1.727-1.446V5.496A1.418 1.418 0 0 1 21.3 4.053l19.236 3.476a2.185 2.185 0 0 1 1.727 2.067L42.24 58.95z"/>
        <path d="M24.73 34.257a1.829 1.829 0 1 1-1.767-2.3 2.086 2.086 0 0 1 1.767 2.3z"/>
    </g>
</svg>
