<svg xmlns="http://www.w3.org/2000/svg" width="24" height="23" viewBox="0 0 24 23">
    <path fill="#FFF" fill-rule="evenodd" d="M3.85.379h16.725a2.82 2.82 0 0 1 2.887 2.888V19.99a2.82 2.82 0 0 1-2.887 2.888H3.85a2.82 2.82 0 0 1-2.888-2.888V3.267A2.82 2.82 0 0 1 3.85.379zm13.503 2.5a1.016 1.016 0 0 0-1.013 1.013v2.425a1.016 1.016 0 0 0 1.013 1.013h2.544a1.016 1.016 0 0 0 1.011-1.013V3.892a1.016 1.016 0 0 0-1.011-1.013h-2.544zm3.567 7.015h-1.981c.192.626.289 1.276.289 1.93a6.997 6.997 0 0 1-13.988 0c0-.654.097-1.304.289-1.93H3.463v9.505a.897.897 0 0 0 .895.895h15.667a.897.897 0 0 0 .895-.895V9.894zm-8.686-2.693a4.381 4.381 0 1 0 4.519 4.38 4.451 4.451 0 0 0-4.52-4.38z"/>
</svg>
