<svg xmlns="http://www.w3.org/2000/svg" width="200" height="55" viewBox="0 0 200 55">
    <defs>
        <linearGradient id="a" x1="50.137%" x2="49.767%" y1="-.273%" y2="100.084%">
            <stop offset="0%" stop-color="#E07053"/>
            <stop offset="100%" stop-color="#FF8363"/>
        </linearGradient>
        <linearGradient id="b" x1="9.336%" x2="136.681%" y1="10.902%" y2="133.024%">
            <stop offset="0%" stop-color="#FF6640"/>
            <stop offset="100%" stop-color="#D94B27"/>
        </linearGradient>
        <linearGradient id="c" x1="84.977%" x2="-27.504%" y1="9.284%" y2="140.22%">
            <stop offset="0%" stop-color="#EB4015"/>
            <stop offset="100%" stop-color="#D94B27"/>
        </linearGradient>
    </defs>
    <g fill="none" fill-rule="nonzero">
        <path fill="url(#a)" d="M106.15 9.306L94.95.246 72.774 18.104 61.081 8.688l-11.199 9.019 22.87 18.418.022-.017.021.017z"/>
        <path fill="url(#b)" d="M72.774 54.585L49.882 36.109V17.707l22.892 18.401z"/>
        <path fill="url(#c)" d="M106.15 27.781L72.774 54.585V36.109L106.15 9.306z"/>
        <g fill="#231F20">
            <path d="M0 18.372h10.54v2.896H3.253v4.107h6.765v2.896H3.252v6.719H0zM13.531 32.094h4.202V21.268H13.53v-2.896h11.68v2.896h-4.226v10.826h4.226v2.896h-11.68zM32.309 26.467l-4.7-8.095h3.798l2.42 4.51.547 1.212.522-1.212 2.47-4.51h3.679l-4.772 8.12 4.914 8.498H37.39l-2.54-4.748-.641-1.282-.617 1.282-2.659 4.748h-3.68zM114.28 18.538a22.586 22.586 0 0 1 2.195-.296 26.758 26.758 0 0 1 2.386-.107c.83 0 1.66.068 2.48.202.793.12 1.555.395 2.244.807a4.69 4.69 0 0 1 1.626 1.685c.454.866.67 1.837.63 2.814a5.706 5.706 0 0 1-.547 2.599 5.169 5.169 0 0 1-1.448 1.78 5.887 5.887 0 0 1-2.054 1.021 8.86 8.86 0 0 1-2.385.32h-.38a12.7 12.7 0 0 1-1.104-.047 3.911 3.911 0 0 1-.392-.047v5.72h-3.252V18.54zm4.842 2.398a10.8 10.8 0 0 0-.902.036 7.403 7.403 0 0 0-.689.083v5.388c.094.022.19.038.285.048a7.229 7.229 0 0 0 .82.047h.296c.426 0 .851-.039 1.27-.118a3.14 3.14 0 0 0 1.127-.44c.34-.22.614-.528.796-.89.216-.467.318-.98.296-1.495a2.632 2.632 0 0 0-.284-1.294 2.33 2.33 0 0 0-.748-.819 2.93 2.93 0 0 0-1.056-.427 6.184 6.184 0 0 0-1.211-.12zM128.451 18.372h10.896v2.896h-7.644v3.87h7.05v2.896h-7.05v4.06h7.763v2.896H128.45zM151.549 26.135l.119-2.588h-.143l-2.659 4.345h-.57l-2.777-4.345h-.119l.143 2.327v9.116h-3.086V18.372h3.3l2.848 4.606h.095l2.825-4.606h3.276V34.99h-3.252zM157.317 26.68c-.013-1.22.115-2.439.38-3.631a7.697 7.697 0 0 1 1.163-2.718 5.312 5.312 0 0 1 1.959-1.698 6.806 6.806 0 0 1 5.662.048 5.285 5.285 0 0 1 1.934 1.78c.53.835.9 1.76 1.092 2.73.239 1.148.354 2.318.345 3.49a11.198 11.198 0 0 1-1.555 6.35 5.308 5.308 0 0 1-4.712 2.291 6.094 6.094 0 0 1-2.909-.641 5.26 5.26 0 0 1-1.946-1.78 7.857 7.857 0 0 1-1.08-2.73 17.064 17.064 0 0 1-.333-3.49zm3.419 0c-.003.754.033 1.507.107 2.256.054.62.19 1.231.403 1.816.171.477.466.899.855 1.223.427.318.952.478 1.484.451.482.018.96-.1 1.376-.344.39-.26.695-.627.879-1.057a5.97 5.97 0 0 0 .463-1.792c.093-.848.137-1.7.13-2.552 0-.775-.027-1.511-.083-2.208a6.676 6.676 0 0 0-.38-1.828 2.88 2.88 0 0 0-.866-1.246 2.336 2.336 0 0 0-1.52-.463 2.224 2.224 0 0 0-2.255 1.448c-.46 1.384-.66 2.84-.593 4.297zM181.223 28.034h-5.366v6.956h-3.252V18.372h3.252v6.766h5.366v-6.766h3.252V34.99h-3.252zM189.175 32.378h2.706V20.984h-2.279v2.872h-2.611v-5.484H200v5.484h-2.612v-2.872h-2.255v11.394h2.682v2.612h-8.641z"/>
        </g>
    </g>
</svg>
