<svg xmlns="http://www.w3.org/2000/svg" width="32" height="22" viewBox="0 0 32 22">
    <path fill="#F9572E" fill-rule="evenodd" stroke="#F9572E" stroke-width=".7" d="M31.234 3.555a2.472 2.472 0 0 0-.657-1.662.09.09 0 0 1-.016-.028c-.007-.007-.017-.01-.025-.018a2.512 2.512 0 0 0-1.823-.783H3.755c-.69 0-1.35.284-1.827.783-.007.008-.017.01-.022.02a.088.088 0 0 0-.015.028 2.453 2.453 0 0 0-.657 1.66v14.683c.001.632.247 1.24.685 1.695.005.01.012.02.02.03.002.003.008.003.01.007a2.52 2.52 0 0 0 1.805.76h24.959a2.52 2.52 0 0 0 1.806-.762l.01-.005c.007-.008.01-.02.02-.028a2.468 2.468 0 0 0 .685-1.697V3.555zm-9.82 6.567l8.645-7.168c.087.188.133.393.134.601v14.683c0 .189-.038.375-.109.55l-8.67-8.666zm7.299-8.03c.21 0 .417.045.609.132l-13.09 10.85L3.146 2.225c.191-.087.399-.131.609-.132h24.958zM2.383 18.788a1.44 1.44 0 0 1-.111-.55V3.555c0-.208.047-.413.136-.601l8.647 7.168-8.672 8.666zm1.372.915a1.502 1.502 0 0 1-.665-.162l8.763-8.757 4.046 3.354a.52.52 0 0 0 .667 0l4.05-3.354 8.76 8.757a1.5 1.5 0 0 1-.663.162H3.755z"/>
</svg>
