<svg xmlns="http://www.w3.org/2000/svg" width="26" height="26" viewBox="0 0 26 26">
    <path fill="#F9572E" fill-rule="nonzero" stroke="#F9572E" stroke-width=".5" d="M18.761 24.977a11.072 11.072 0 0 1-3.318-.58 21.217 21.217 0 0 1-8.37-5.45C2.86 14.733 1.043 11.488 1 8.097a.67.67 0 0 1 .663-.679h.008c.367 0 .666.296.67.663.039 3.008 1.738 5.974 5.681 9.918 6.042 6.042 10.826 5.649 11.077 5.623a5.02 5.02 0 0 0 1.234-.31 4.83 4.83 0 0 0 1.204-.682.706.706 0 0 1 .1-.065l.823-.806c.43-.411.448-1.092.042-1.526l-3.365-3.365a1.083 1.083 0 0 0-1.526.046l-1.696 1.696a.671.671 0 0 1-.798.113l-.34-.189a16.553 16.553 0 0 1-7.289-7.29l-.034-.06c-.05-.092-.1-.18-.148-.265a.67.67 0 0 1 .109-.808l1.697-1.696c.432-.41.453-1.092.045-1.526L5.791 3.522a1.008 1.008 0 0 0-.74-.292 1.137 1.137 0 0 0-.779.332l-.893.95a4.685 4.685 0 0 0-.445.697.671.671 0 1 1-1.19-.62 6.01 6.01 0 0 1 .636-.975l.923-.98.014-.014a2.472 2.472 0 0 1 1.709-.731 2.335 2.335 0 0 1 1.714.684l3.366 3.367c.93.959.91 2.49-.045 3.423l-1.34 1.339a15.134 15.134 0 0 0 6.603 6.6l1.338-1.337a2.426 2.426 0 0 1 3.422-.048l3.367 3.368c.93.96.91 2.489-.044 3.424l-.005.006-.962.94a.67.67 0 0 1-.232.15 6.36 6.36 0 0 1-2.954 1.15h-.01c-.16.016-.321.023-.483.022zM25 13.432C24.992 6.57 19.43 1.008 12.568 1a.671.671 0 0 0 0 1.342c6.122.007 11.083 4.968 11.09 11.09a.67.67 0 0 0 1.342 0zm-4.364-.516a7.56 7.56 0 0 0-7.552-7.552.671.671 0 0 0 0 1.342 6.218 6.218 0 0 1 6.21 6.21.67.67 0 1 0 1.342 0z"/>
</svg>
