<svg xmlns="http://www.w3.org/2000/svg" width="29" height="18" viewBox="0 0 29 18">
    <path fill="#FFF" fill-rule="nonzero" d="M28.375 15.644a1.956 1.956 0 0 0-.097-.186 14.774 14.774 0 0 0-2.832-3.276l-.03-.03-.014-.015-.015-.015h-.015c-.632-.603-1.033-1.008-1.201-1.216a1.142 1.142 0 0 1-.208-1.201c.375-.693.823-1.344 1.335-1.943.405-.523.726-.943.963-1.26 1.71-2.274 2.452-3.727 2.225-4.36l-.088-.147a.865.865 0 0 0-.46-.245 2.316 2.316 0 0 0-.949-.037l-4.271.03a.553.553 0 0 0-.296.007l-.194.045-.073.037-.06.045a.645.645 0 0 0-.163.155 1.02 1.02 0 0 0-.147.26 24.242 24.242 0 0 1-1.587 3.336 32.085 32.085 0 0 1-1.009 1.594 7.74 7.74 0 0 1-.77.993 5.332 5.332 0 0 1-.564.511c-.169.13-.297.184-.386.164-.089-.02-.173-.04-.252-.06a.974.974 0 0 1-.333-.363 1.614 1.614 0 0 1-.17-.578 6.695 6.695 0 0 1-.053-.6c-.005-.168-.002-.406.008-.712.01-.307.015-.515.015-.623 0-.376.007-.784.021-1.224l.038-1.045c.01-.257.014-.529.015-.816a3.419 3.419 0 0 0-.053-.674 2.285 2.285 0 0 0-.155-.475.795.795 0 0 0-.304-.355 1.704 1.704 0 0 0-.496-.201A9.941 9.941 0 0 0 13.748.97a9.736 9.736 0 0 0-3.545.356 1.989 1.989 0 0 0-.563.445c-.178.217-.202.336-.075.356.49.034.944.264 1.262.637l.088.179c.098.217.168.446.208.681.073.357.117.72.133 1.083.05.617.05 1.237 0 1.854-.049.513-.096.913-.14 1.2a2.404 2.404 0 0 1-.2.698 2.817 2.817 0 0 1-.18.326.254.254 0 0 1-.073.074 1.1 1.1 0 0 1-.4.074.941.941 0 0 1-.505-.208 3.555 3.555 0 0 1-.615-.571 7.623 7.623 0 0 1-.72-1.016 17.723 17.723 0 0 1-.83-1.542l-.237-.43a35 35 0 0 1-.608-1.208 23.325 23.325 0 0 1-.681-1.535.985.985 0 0 0-.357-.475l-.074-.044a1.066 1.066 0 0 0-.237-.126 1.58 1.58 0 0 0-.341-.096l-4.063.03c-.31-.04-.62.064-.845.28l-.06.09a.485.485 0 0 0-.044.237c.006.138.036.273.089.4A49.22 49.22 0 0 0 2.07 6.755c.697 1.295 1.302 2.338 1.816 3.129a37.297 37.297 0 0 0 1.572 2.238c.534.702.887 1.152 1.06 1.35.173.198.31.346.408.445l.37.356c.327.31.676.596 1.047.852.492.352 1.001.68 1.526.98a8.3 8.3 0 0 0 1.951.785 6.722 6.722 0 0 0 2.165.244h1.705c.294-.007.574-.123.786-.326l.059-.073a.98.98 0 0 0 .11-.275c.037-.133.054-.27.053-.408a4.92 4.92 0 0 1 .096-1.149 3.01 3.01 0 0 1 .252-.77 1.86 1.86 0 0 1 .32-.438 1.26 1.26 0 0 1 .252-.215.995.995 0 0 1 .118-.052c.3-.064.613.022.838.23.337.247.64.536.905.86.281.341.62.724 1.015 1.15.313.35.66.667 1.037.948l.297.178c.244.139.503.248.772.326.266.096.551.121.83.075l3.796-.06c.303.017.605-.047.875-.185a.734.734 0 0 0 .37-.407 1.15 1.15 0 0 0 .008-.505 1.926 1.926 0 0 0-.104-.393z"/>
</svg>
